<svg width="50" height="50" viewBox="0 0 50 50" fill="none" xmlns="http://www.w3.org/2000/svg">
<path d="M38.391 21.4331C34.9507 21.4331 32.1445 24.2395 32.1445 27.6796C32.1445 31.1198 34.9507 33.9325 38.391 33.9325C41.8313 33.9325 44.6442 31.1198 44.6442 27.6796C44.6442 24.2395 41.8313 21.4331 38.391 21.4331V21.4331ZM38.391 23.2187C40.8667 23.2187 42.8584 25.2041 42.8584 27.6796C42.8584 30.1552 40.8663 32.1469 38.391 32.1469C35.9153 32.1469 33.9298 30.1548 33.9298 27.6796C33.9298 25.2041 35.9153 23.2187 38.391 23.2187V23.2187Z" fill="#636369"/>
<path d="M38.3923 35.7148C31.9773 35.7148 26.7852 40.908 26.7852 47.3235V49.1099L26.7856 49.1103C26.7864 49.3471 26.8812 49.5739 27.0494 49.7409C27.2176 49.9079 27.4448 50.0011 27.682 50H49.1096C49.6003 49.9984 49.9977 49.601 49.9993 49.1103V47.3239C49.9993 40.9084 44.8071 35.7152 38.3921 35.7152L38.3923 35.7148ZM38.3923 37.5013C43.8492 37.5013 48.213 41.8665 48.213 47.3235V48.2135H28.5721V47.3235C28.5721 41.8666 32.9364 37.5013 38.3927 37.5013H38.3923Z" fill="#636369"/>
<path d="M16.0522 0.000443036C15.5603 0.0024359 15.1617 0.399424 15.1597 0.889666V4.86427C13.3477 5.54783 11.6656 6.50879 10.1657 7.73128L6.72018 5.74678C6.29249 5.50046 5.74521 5.64555 5.49691 6.07123L0.119854 15.3505C-0.126484 15.7782 0.0214005 16.3238 0.450692 16.5693L3.82958 18.514C3.66217 19.4766 3.52027 20.4435 3.51269 21.4212V21.428C3.51429 22.4089 3.65459 23.3807 3.81722 24.3471L0.450682 26.2846C0.0205986 26.5301 -0.127688 27.0774 0.119843 27.5055L5.4969 36.7847C5.74563 37.2096 6.2929 37.3539 6.72017 37.1072L10.1796 35.1242C11.6763 36.3486 13.35 37.3168 15.1597 38.0036V41.9658C15.1613 42.4561 15.5599 42.8535 16.0522 42.855H25.2438C25.7385 42.855 26.1399 42.4553 26.1399 41.9622C26.1399 41.4692 25.7389 41.0694 25.2438 41.0694H16.9513V37.5101C16.9533 37.1255 16.7082 36.7823 16.3423 36.6591C14.2811 35.9688 12.3775 34.8703 10.7535 33.4295C10.4645 33.1736 10.0432 33.1313 9.70878 33.3251L6.60132 35.1178L2.12345 27.3798L5.20499 25.6061C5.54062 25.4136 5.714 25.0282 5.63548 24.6504C5.41546 23.589 5.30624 22.5116 5.30465 21.4274C5.31341 20.3485 5.42981 19.2723 5.65462 18.2169C5.73354 17.8394 5.56095 17.454 5.22573 17.2611L2.12347 15.4755L6.60134 7.74307L9.70207 9.52349C10.0353 9.71441 10.4534 9.67216 10.7417 9.41907C12.3695 7.98098 14.2721 6.88735 16.3356 6.20137C16.7035 6.0806 16.9518 5.73821 16.9514 5.352V1.78553H25.9122V5.34485C25.9106 5.72908 26.1562 6.07107 26.5213 6.19422C28.5824 6.88496 30.4794 7.98261 32.1033 9.42387C32.3918 9.68015 32.8132 9.7232 33.148 9.53029L36.2626 7.74262L40.7404 15.475L37.6521 17.2487C37.3164 17.4412 37.143 17.8266 37.2216 18.2045C37.2674 18.4253 37.3093 18.6505 37.3459 18.8725C37.4081 19.3616 37.8561 19.7071 38.3468 19.645C38.8375 19.5828 39.1336 19.1384 39.0711 18.6493C39.0631 18.6019 39.0547 18.5536 39.0468 18.5062L42.4133 16.5688C42.8398 16.3208 42.9845 15.7756 42.737 15.3499L37.3599 6.07069C37.1116 5.645 36.5647 5.49992 36.1366 5.74624L32.6844 7.73799C31.1897 6.51478 29.5115 5.54421 27.7043 4.8571V0.889637C27.7023 0.396599 27.2993 -0.00158701 26.8046 4.75575e-06L16.0522 0.000443036Z" fill="#636369"/>
<path d="M21.3567 12.5039C16.4355 12.5039 12.4316 16.5128 12.4316 21.4321C12.4316 26.3513 16.4355 30.3602 21.3567 30.3602C26.2778 30.3602 30.2884 26.3513 30.2884 21.4321C30.2884 16.5128 26.2777 12.5039 21.3567 12.5039V12.5039ZM21.3567 14.2895C25.3128 14.2895 28.5019 17.4778 28.5019 21.4321C28.5019 25.3864 25.3123 28.5746 21.3567 28.5746C17.4005 28.5746 14.2178 25.3864 14.2178 21.4321C14.2178 17.4778 17.4005 14.2895 21.3567 14.2895V14.2895Z" fill="#636369"/>
</svg>
