<svg width="50" height="45" viewBox="0 0 50 45" fill="none" xmlns="http://www.w3.org/2000/svg">
<path d="M8.74952 35.6253H17.9995L23.1248 43.6877C23.4997 44.3128 24.1872 44.6878 24.9371 44.6878C25.6869 44.6878 26.3745 44.3128 26.7493 43.6877L31.8746 35.6253H41.2501C46.0628 35.6253 50 31.6877 50 26.8755V8.75029C50 3.93764 46.0624 0.000435969 41.2501 0.000435969L8.74986 0C3.9372 0 0 3.93765 0 8.74985V26.875C0 31.7505 3.93765 35.6253 8.74986 35.6253L8.74952 35.6253ZM2.49946 8.75007C2.49946 5.31242 5.31188 2.50001 8.74952 2.50001H41.2498C44.6875 2.50001 47.4999 5.31242 47.4999 8.75007V26.8752C47.4999 30.3129 44.6875 33.1253 41.2498 33.1253H31.2495C30.8118 33.1253 30.4369 33.3128 30.187 33.6877L24.9995 41.938L19.812 33.7505C19.5621 33.3756 19.1868 33.1881 18.7495 33.1881L8.74919 33.1877C5.31154 33.1877 2.49913 30.3753 2.49913 26.9376L2.49946 8.75007Z" fill="#636369"/>
</svg>
