<svg width="47" height="37" viewBox="0 0 47 37" fill="none" xmlns="http://www.w3.org/2000/svg">
<path d="M41.9781 0H5.02128C2.32802 0 0.136719 2.19095 0.136719 4.88421V32.1154C0.136719 34.8087 2.32802 37 5.02128 37H41.9789C44.6722 37 46.8635 34.8087 46.8635 32.1154L46.8632 4.88421C46.8632 2.19095 44.6719 0 41.9786 0H41.9781ZM44.8745 32.1164C44.8745 33.7132 43.5752 35.0125 41.9784 35.0125H5.02075C3.42398 35.0125 2.12469 33.7132 2.12469 32.1164L2.12435 4.8843C2.12435 3.28753 3.42364 1.98824 5.02041 1.98824H41.9781C43.5748 1.98824 44.8741 3.28753 44.8741 4.8843L44.8745 32.1164Z" fill="#636369"/>
<path d="M41.3351 4.1251L25.3393 17.6415C24.2726 18.5198 22.7239 18.5205 21.6669 17.6493L5.66137 4.12508C5.24143 3.77032 4.61459 3.82351 4.2602 4.24276C3.90578 4.66201 3.95862 5.28953 4.37787 5.64393L20.393 19.1761C21.2913 19.9158 22.3923 20.2864 23.4949 20.2864C24.6003 20.2864 25.7072 19.9141 26.6129 19.1683L42.6184 5.64402C43.0377 5.2896 43.0905 4.66207 42.7361 4.24285C42.3817 3.82359 41.7545 3.77144 41.3353 4.12551L41.3351 4.1251Z" fill="#636369"/>
<path d="M30.1109 21.6269C29.6896 21.2756 29.0624 21.3322 28.7108 21.7542C28.3595 22.1762 28.4164 22.8027 28.8381 23.1543L40.5091 32.8799C40.6951 33.0346 40.9205 33.1101 41.1452 33.1101C41.43 33.1101 41.713 32.9883 41.9096 32.7523C42.2609 32.3303 42.204 31.7037 41.7823 31.3522L30.1109 21.6269Z" fill="#636369"/>
<path d="M16.8863 21.6267L5.2153 31.3523C4.79329 31.704 4.73634 32.3308 5.08801 32.7524C5.2846 32.9885 5.56765 33.1103 5.85241 33.1103C6.0768 33.1103 6.30255 33.0348 6.48851 32.88L18.1587 23.1545C18.5807 22.8028 18.6376 22.1759 18.2859 21.7544C17.9339 21.3324 17.3078 21.2754 16.8858 21.6271L16.8863 21.6267Z" fill="#636369"/>
</svg>
