<svg width="51" height="38" viewBox="0 0 51 38" fill="none" xmlns="http://www.w3.org/2000/svg">
<path d="M45.3852 0.000479047C43.9843 -0.00576729 42.643 0.565564 41.6765 1.57949C40.71 2.59348 40.2041 3.9606 40.2774 5.35977C40.3507 6.75852 40.9969 8.06527 42.0643 8.97268L34.7956 21.473V21.4735C33.9611 21.1595 33.057 21.0774 32.1796 21.2361C31.3023 21.3947 30.4844 21.7878 29.8127 22.3742L23.1325 16.8824C23.5572 16.1328 23.7834 15.2871 23.7892 14.4255C23.7959 12.7264 22.9584 11.1354 21.5542 10.1788C20.1501 9.22227 18.3627 9.02537 16.7842 9.65289C15.2055 10.2808 14.0416 11.6517 13.678 13.3111C13.3141 14.9705 13.7984 16.7024 14.9698 17.9329L7.71111 27.9104C6.11205 27.2279 4.27687 27.3936 2.82609 28.3514C1.3749 29.3091 0.501173 30.9311 0.500001 32.6697C0.499168 34.4086 1.37074 36.0319 2.82076 36.9913C4.27079 37.9511 6.10544 38.1189 7.70535 37.4381C9.30526 36.7577 10.457 35.3198 10.7715 33.6095C11.0859 31.8997 10.5212 30.1458 9.26816 28.9406L16.4805 19.0269C17.3596 19.4608 18.347 19.6257 19.3197 19.5008C20.2921 19.3754 21.2057 18.9661 21.9465 18.324L28.6268 23.8153C28.202 24.5645 27.9759 25.4102 27.9701 26.2714C27.9588 28.0183 28.84 29.6502 30.3066 30.5989C31.7737 31.5479 33.6234 31.6824 35.2121 30.9562C36.8007 30.2295 37.9088 28.7424 38.1507 27.0122C38.3923 25.2821 37.7343 23.548 36.4055 22.4137L43.6738 9.91332C44.2218 10.117 44.8006 10.224 45.3853 10.2298C47.2126 10.2298 48.9011 9.25497 49.8148 7.67217C50.7284 6.08974 50.7284 4.14006 49.8148 2.55764C48.9012 0.974785 47.2126 0 45.3853 0L45.3852 0.000479047ZM5.74137 35.878C4.87938 35.878 4.05319 35.5357 3.44352 34.926C2.8343 34.3168 2.492 33.4902 2.492 32.6282C2.492 31.7666 2.83471 30.94 3.44394 30.3308C4.05358 29.7216 4.88021 29.3793 5.74178 29.3793C6.60377 29.3797 7.43039 29.722 8.03963 30.3316C8.64887 30.9413 8.99074 31.7679 8.99074 32.6295C8.98949 33.491 8.64677 34.3168 8.03755 34.9256C7.42874 35.5344 6.60255 35.8771 5.74141 35.8779L5.74137 35.878ZM15.4244 14.4261V14.4265C15.4248 13.5645 15.7671 12.7383 16.3768 12.1291C16.986 11.5199 17.8126 11.1776 18.6742 11.178C19.5362 11.178 20.3624 11.5207 20.9716 12.1299C21.5808 12.7392 21.9231 13.5658 21.9231 14.4274C21.9231 15.2893 21.5804 16.1155 20.9712 16.7248C20.362 17.3344 19.5353 17.6767 18.6738 17.6767C17.8122 17.6755 16.986 17.3327 16.3768 16.7235C15.7675 16.1139 15.4252 15.2881 15.4244 14.4261H15.4244ZM33.0844 29.5223V29.5227C32.2228 29.5227 31.3962 29.1804 30.787 28.5712C30.1777 27.9615 29.8354 27.1353 29.835 26.2737C29.835 25.4117 30.1773 24.5856 30.7866 23.9759C31.3958 23.3667 32.222 23.0244 33.084 23.024C33.9455 23.024 34.7721 23.3658 35.3814 23.9751C35.991 24.5843 36.3333 25.4105 36.3337 26.2725C36.3329 27.134 35.9906 27.9602 35.3814 28.5695C34.7722 29.1787 33.946 29.5214 33.0844 29.5227L33.0844 29.5223ZM45.3843 8.36568C44.5228 8.36568 43.6961 8.02338 43.0869 7.41415C42.4777 6.80493 42.135 5.97831 42.135 5.11673C42.135 4.25475 42.4773 3.42856 43.0865 2.81889C43.6957 2.20967 44.5219 1.86737 45.3839 1.86695C46.2455 1.86695 47.0721 2.20883 47.6813 2.81806C48.291 3.42728 48.6333 4.25348 48.6337 5.11548C48.6329 5.97705 48.2901 6.80323 47.6813 7.41247C47.0721 8.02169 46.2459 8.36441 45.3843 8.36566L45.3843 8.36568Z" fill="#636369"/>
</svg>
