<svg width="40" height="58" viewBox="0 0 40 58" fill="none" xmlns="http://www.w3.org/2000/svg">
<path d="M20.0544 1.39913C16.5998 2.0714 13.03 2.76793 9.56923 2.76793C6.68435 2.76793 4.12752 2.28846 1.75494 1.29667C1.65248 1.25428 1.547 1.23661 1.44151 1.23359C1.4294 1.23359 1.41729 1.22753 1.40517 1.22753C1.39609 1.22753 1.39003 1.23359 1.38095 1.23359C1.20581 1.23308 1.03422 1.28153 0.883304 1.37793C0.738453 1.47433 0.629946 1.6101 0.560796 1.76403C0.548683 1.78523 0.542627 1.80895 0.533542 1.83318C0.497203 1.92958 0.473482 2.029 0.470453 2.13448C0.470453 2.14054 0.467425 2.14357 0.467425 2.1466L6.57942e-05 56.6089C-0.00599067 57.1212 0.406854 57.7395 0.919641 57.7395H0.928726C1.43797 57.7395 1.85132 57.1363 1.85738 56.6271L2.09257 29.1013C4.33854 29.867 6.72017 30.2137 9.35827 30.2137C12.9972 30.2137 16.6599 29.4784 20.1993 28.7879C23.654 28.1157 27.2238 27.407 30.6876 27.407C33.5725 27.407 36.1293 27.8804 38.505 28.8722C38.7912 28.9898 39.1172 28.9565 39.3731 28.7879C39.6295 28.6163 39.786 28.3296 39.789 28.0192L40 2.47807C40.003 2.10105 39.7769 1.75735 39.4301 1.613C36.8254 0.527892 34.0338 1.31009e-05 30.8981 1.31009e-05C27.2566 -0.00351987 23.5965 0.708119 20.0545 1.39852L20.0544 1.39913ZM37.9441 26.669C35.7042 25.9094 33.3165 25.5384 30.6875 25.5384C27.0485 25.5384 23.3859 26.2501 19.8464 26.9406C16.3918 27.6128 12.822 28.3094 9.36121 28.3094C6.70799 28.3094 4.33541 27.9026 2.12278 27.0673L2.31861 3.49518C4.55294 4.25174 6.94064 4.62219 9.56918 4.62219C13.2081 4.62219 16.8708 3.91056 20.4102 3.22006C23.8649 2.5478 27.4347 1.85127 30.8985 1.85127C33.5518 1.85127 35.9274 2.25806 38.137 3.09335L37.9441 26.669Z" fill="#636369"/>
</svg>
