<svg width="56" height="47" viewBox="0 0 56 47" fill="none" xmlns="http://www.w3.org/2000/svg">
<path d="M32.6017 25.627C32.6017 28.1626 30.5465 30.2179 28.0108 30.2179C25.4751 30.2179 23.4199 28.1627 23.4199 25.627C23.4199 23.0914 25.4751 21.0361 28.0108 21.0361C30.5465 21.0361 32.6017 23.0913 32.6017 25.627" stroke="#636369" stroke-width="1.75805" stroke-miterlimit="10" stroke-linecap="round"/>
<path d="M28.0097 33.3545C22.6278 33.3545 18.2656 38.0688 18.2656 43.8838H37.7527C37.7537 38.0674 33.3914 33.3545 28.0097 33.3545Z" stroke="#636369" stroke-width="1.75805" stroke-miterlimit="10" stroke-linecap="round"/>
<path d="M15.8412 3.94013C15.8412 5.59986 14.4954 6.94569 12.8356 6.94569C11.1756 6.94569 9.83008 5.59986 9.83008 3.94013C9.83008 2.28012 11.1756 0.93457 12.8356 0.93457C14.4954 0.93457 15.8412 2.28012 15.8412 3.94013Z" stroke="#636369" stroke-width="1.75805" stroke-miterlimit="10" stroke-linecap="round"/>
<path d="M12.8361 8.99805C9.31506 8.99805 6.45898 12.083 6.45898 15.8888H19.2151C19.2142 12.0817 16.3587 8.99805 12.8361 8.99805V8.99805Z" stroke="#636369" stroke-width="1.75805" stroke-miterlimit="10" stroke-linecap="round"/>
<path d="M46.1889 3.94013C46.1889 5.59986 44.8433 6.94569 43.1833 6.94569C41.5236 6.94569 40.1777 5.59986 40.1777 3.94013C40.1777 2.28012 41.5236 0.93457 43.1833 0.93457C44.8433 0.93457 46.1889 2.28012 46.1889 3.94013Z" stroke="#636369" stroke-width="1.75805" stroke-miterlimit="10" stroke-linecap="round"/>
<path d="M43.1847 8.99805C39.6636 8.99805 36.8066 12.083 36.8066 15.8888H49.5618C49.5618 12.0817 46.7057 8.99805 43.1847 8.99805Z" stroke="#636369" stroke-width="1.75805" stroke-miterlimit="10" stroke-linecap="round"/>
<path d="M11.9551 19.1196V30.4267H19.2138" stroke="#636369" stroke-width="1.75805" stroke-miterlimit="10" stroke-linecap="round"/>
<path d="M44.0644 19.1196V30.4267H36.8066" stroke="#636369" stroke-width="1.75805" stroke-miterlimit="10" stroke-linecap="round"/>
</svg>
