<svg width="37" height="54" viewBox="0 0 37 54" fill="none" xmlns="http://www.w3.org/2000/svg">
<path d="M18.5504 1.2942C15.3548 1.91604 12.0527 2.56033 8.85154 2.56033C6.18303 2.56033 3.81796 2.11683 1.62332 1.19942C1.52855 1.16021 1.43097 1.14387 1.3334 1.14107C1.32219 1.14107 1.31099 1.13546 1.29979 1.13546C1.29138 1.13546 1.28578 1.14107 1.27738 1.14107C1.11538 1.1406 0.956649 1.18542 0.817057 1.27459C0.683069 1.36376 0.5827 1.48934 0.518736 1.63173C0.507531 1.65134 0.50193 1.67328 0.493526 1.69569C0.459913 1.78486 0.437971 1.87683 0.435169 1.9744C0.435169 1.98 0.432368 1.9828 0.432368 1.9856L6.08597e-05 52.3633C-0.00554137 52.8371 0.37634 53.409 0.850668 53.409H0.859072C1.33013 53.409 1.71248 52.8511 1.71808 52.3801L1.93563 26.9187C4.01315 27.627 6.21615 27.9477 8.6564 27.9477C12.0224 27.9477 15.4104 27.2675 18.6844 26.6288C21.8799 26.007 25.182 25.3515 28.3861 25.3515C31.0546 25.3515 33.4196 25.7894 35.6171 26.7068C35.8818 26.8155 36.1834 26.7847 36.4201 26.6288C36.6573 26.4701 36.802 26.2049 36.8048 25.9178L37 2.29221C37.0028 1.94347 36.7936 1.62555 36.4729 1.49203C34.0635 0.4883 31.4813 1.21183e-05 28.5808 1.21183e-05C25.2124 -0.00325588 21.8268 0.65501 18.5504 1.29363L18.5504 1.2942ZM35.0983 24.6688C33.0264 23.9662 30.8178 23.623 28.3859 23.623C25.0199 23.623 21.6319 24.2813 18.3579 24.92C15.1624 25.5419 11.8603 26.1862 8.65912 26.1862C6.2049 26.1862 4.01026 25.8099 1.96357 25.0372L2.14471 3.23304C4.21147 3.93286 6.4201 4.27553 8.85149 4.27553C12.2175 4.27553 15.6055 3.61727 18.8795 2.97856C22.075 2.35672 25.3771 1.71243 28.5811 1.71243C31.0354 1.71243 33.2329 2.0887 35.2767 2.86135L35.0983 24.6688Z" fill="#636369"/>
</svg>
