<svg width="13" height="14" viewBox="0 0 13 14" fill="none" xmlns="http://www.w3.org/2000/svg">
<path d="M1.54167 13.625C1.15208 13.625 0.818458 13.4864 0.540792 13.2092C0.263597 12.9315 0.125 12.5979 0.125 12.2083V2.29167C0.125 1.90208 0.263597 1.56846 0.540792 1.29079C0.818458 1.0136 1.15208 0.875 1.54167 0.875H6.5V2.29167H1.54167V12.2083H11.4583V7.25H12.875V12.2083C12.875 12.5979 12.7364 12.9315 12.4592 13.2092C12.1815 13.4864 11.8479 13.625 11.4583 13.625H1.54167ZM4.87083 9.87083L3.87917 8.87917L10.4667 2.29167H7.91667V0.875H12.875V5.83333H11.4583V3.28333L4.87083 9.87083Z" fill="white"/>
</svg>
