<svg width="18" height="18" viewBox="0 0 18 18" fill="none" xmlns="http://www.w3.org/2000/svg">
<path d="M8.16797 0.666504C12.308 0.666504 15.668 4.0265 15.668 8.1665C15.668 12.3065 12.308 15.6665 8.16797 15.6665C4.02797 15.6665 0.667969 12.3065 0.667969 8.1665C0.667969 4.0265 4.02797 0.666504 8.16797 0.666504ZM8.16797 13.9998C11.3905 13.9998 14.0013 11.389 14.0013 8.1665C14.0013 4.94317 11.3905 2.33317 8.16797 2.33317C4.94464 2.33317 2.33464 4.94317 2.33464 8.1665C2.33464 11.389 4.94464 13.9998 8.16797 13.9998ZM15.2388 14.059L17.5963 16.4157L16.4171 17.5948L14.0605 15.2373L15.2388 14.059V14.059Z" fill="white"/>
</svg>
