<svg width="31" height="30" viewBox="0 0 31 30" fill="none" xmlns="http://www.w3.org/2000/svg">
<g clip-path="url(#clip0_468_3283)">
<path d="M15.7832 30C24.0675 30 30.7832 23.2843 30.7832 15C30.7832 6.71573 24.0675 0 15.7832 0C7.49893 0 0.783203 6.71573 0.783203 15C0.783203 23.2843 7.49893 30 15.7832 30Z" fill="#2B2B2B"/>
<path d="M11.3806 8.20312C12.0274 8.20312 12.6178 8.26073 13.1518 8.37473C13.6858 8.48873 14.1418 8.67593 14.5222 8.93633C14.9026 9.19673 15.1978 9.54233 15.4078 9.97433C15.6178 10.4063 15.7222 10.9391 15.7222 11.5739C15.7222 12.2591 15.5662 12.8303 15.2554 13.2875C14.9446 13.7447 14.4838 14.1191 13.8754 14.4107C14.713 14.6519 15.3382 15.0743 15.751 15.6767C16.1638 16.2791 16.3702 17.0063 16.3702 17.8571C16.3702 18.5423 16.237 19.1363 15.9706 19.6379C15.7042 20.1395 15.3454 20.5487 14.8942 20.8655C14.443 21.1835 13.9294 21.4175 13.3522 21.5699C12.7714 21.7223 12.1726 21.7991 11.5726 21.7979H4.9834V8.20312H11.3806ZM11.0002 13.7051C11.533 13.7051 11.971 13.5779 12.3142 13.3247C12.6574 13.0703 12.829 12.6587 12.8278 12.0875C12.8278 11.7707 12.7702 11.5103 12.6562 11.3075C12.5422 11.1047 12.3898 10.9451 12.199 10.8311C12.0082 10.7171 11.7898 10.6379 11.5426 10.5935C11.2882 10.5491 11.0302 10.5263 10.771 10.5275H7.9738V13.7075L11.0002 13.7051ZM11.1718 19.4735C11.4538 19.4747 11.7346 19.4459 12.0094 19.3883C12.2758 19.3307 12.511 19.2359 12.7138 19.1027C12.9166 18.9695 13.0786 18.7883 13.1998 18.5603C13.3198 18.3323 13.381 18.0395 13.381 17.6843C13.381 16.9871 13.1842 16.4879 12.7906 16.1903C12.397 15.8915 11.8762 15.7427 11.2294 15.7427H7.9738V19.4747L11.1718 19.4735ZM20.131 19.1879C20.5366 19.5815 21.121 19.7783 21.883 19.7783C22.429 19.7783 22.8982 19.6415 23.2918 19.3691C23.6854 19.0967 23.9266 18.8075 24.0154 18.5027H26.395C26.0146 19.6835 25.4302 20.5271 24.643 21.0347C23.8558 21.5423 22.9042 21.7967 21.787 21.7967C21.013 21.7967 20.3146 21.6731 19.693 21.4259C19.0714 21.1787 18.5446 20.8259 18.1126 20.3687C17.6806 19.9115 17.347 19.3667 17.113 18.7319C16.879 18.0971 16.7614 17.3987 16.7614 16.6379C16.7614 15.9023 16.8814 15.2171 17.1226 14.5823C17.3638 13.9475 17.707 13.3991 18.151 12.9359C18.595 12.4727 19.1254 12.1079 19.741 11.8415C20.3566 11.5751 21.0394 11.4419 21.7882 11.4419C22.6258 11.4419 23.3554 11.6039 23.9782 11.9279C24.5998 12.2519 25.111 12.6863 25.5106 13.2323C25.9102 13.7783 26.1994 14.3999 26.377 15.0983C26.5546 15.7967 26.6182 16.5263 26.5678 17.2883H19.4662C19.5034 18.1607 19.7254 18.7955 20.131 19.1879ZM23.1874 14.0099C22.8634 13.6547 22.3714 13.4771 21.7114 13.4771C21.2794 13.4771 20.9206 13.5503 20.6362 13.6955C20.3506 13.8419 20.1226 14.0219 19.951 14.2379C19.7794 14.4539 19.6594 14.6819 19.5898 14.9231C19.5202 15.1643 19.4782 15.3803 19.4662 15.5699H23.8642C23.7358 14.8859 23.5102 14.3651 23.1874 14.0099ZM19.003 8.89312H24.4978V10.4171H19.003V8.89312Z" fill="white"/>
</g>
<defs>
<clipPath id="clip0_468_3283">
<rect width="30" height="30" fill="white" transform="translate(0.783203)"/>
</clipPath>
</defs>
</svg>
