<svg width="31" height="30" viewBox="0 0 31 30" fill="none" xmlns="http://www.w3.org/2000/svg">
<g clip-path="url(#clip0_468_3286)">
<path d="M15.7252 0C7.47402 0 0.783203 6.67444 0.783203 14.908C0.783203 21.4949 5.06453 27.083 11.0015 29.0543C11.7482 29.1923 12.0224 28.7309 12.0224 28.3371C12.0224 27.9817 12.0085 26.8072 12.0021 25.5615C7.84516 26.4633 6.96801 23.8026 6.96801 23.8026C6.28832 22.0794 5.30898 21.6213 5.30898 21.6213C3.95336 20.696 5.41117 20.7149 5.41117 20.7149C6.91164 20.8201 7.70172 22.2512 7.70172 22.2512C9.03438 24.5304 11.1972 23.8714 12.0498 23.4906C12.1839 22.5269 12.5712 21.8694 12.9985 21.4971C9.67973 21.12 6.19082 19.8417 6.19082 14.1294C6.19082 12.5019 6.77453 11.1719 7.73043 10.1279C7.57527 9.75239 7.06387 8.23615 7.87516 6.18267C7.87516 6.18267 9.12988 5.78198 11.9853 7.71083C13.1771 7.38041 14.4554 7.21485 15.7252 7.20924C16.995 7.21485 18.2743 7.38041 19.4684 7.71083C22.3204 5.78198 23.5734 6.18267 23.5734 6.18267C24.3866 8.23615 23.875 9.75239 23.7198 10.1279C24.6779 11.1719 25.2576 12.5018 25.2576 14.1294C25.2576 19.8553 21.7621 21.1162 18.4349 21.4852C18.9708 21.9478 19.4484 22.8551 19.4484 24.2459C19.4484 26.2406 19.431 27.846 19.431 28.3371C19.431 28.7338 19.7 29.1987 20.4575 29.0523C26.3911 27.0788 30.6671 21.4927 30.6671 14.908C30.6671 6.67444 23.9772 0 15.7252 0Z" fill="#2B2B2B"/>
<path d="M6.37969 21.2367C6.34688 21.3107 6.22993 21.3329 6.12364 21.2822C6.01524 21.2335 5.9543 21.1325 5.98946 21.0581C6.02169 20.9819 6.13864 20.9606 6.2468 21.0118C6.35544 21.0604 6.41731 21.1623 6.37969 21.2367ZM7.11469 21.891C7.04344 21.9569 6.90411 21.9263 6.80954 21.8221C6.7118 21.7182 6.69352 21.5793 6.76583 21.5123C6.8393 21.4464 6.97442 21.4772 7.07239 21.5813C7.17012 21.6864 7.18911 21.8244 7.11458 21.8911L7.11469 21.891ZM7.61895 22.7281C7.52731 22.7916 7.37755 22.7321 7.28508 22.5995C7.19356 22.467 7.19356 22.308 7.28708 22.2443C7.37989 22.1806 7.52731 22.2379 7.62106 22.3694C7.71247 22.5042 7.71247 22.6632 7.61883 22.7282L7.61895 22.7281ZM8.47161 23.6978C8.38969 23.7878 8.21532 23.7637 8.08758 23.6407C7.95704 23.5205 7.92059 23.3499 8.00274 23.2598C8.08559 23.1695 8.26102 23.1949 8.38969 23.3168C8.51942 23.4368 8.55903 23.6087 8.47173 23.6978H8.47161ZM9.57364 24.0251C9.53766 24.1418 9.36962 24.1949 9.2004 24.1453C9.03141 24.0942 8.92079 23.9574 8.95489 23.8395C8.99005 23.722 9.1588 23.6667 9.3293 23.7197C9.49805 23.7706 9.60891 23.9063 9.57376 24.0251H9.57364ZM10.828 24.1639C10.8322 24.2869 10.6887 24.3889 10.511 24.3911C10.3323 24.395 10.1878 24.2955 10.1859 24.1746C10.1859 24.0504 10.3262 23.9494 10.5048 23.9464C10.6825 23.9429 10.828 24.0417 10.828 24.1639ZM12.0601 24.1168C12.0815 24.2368 11.9579 24.36 11.7816 24.3927C11.6081 24.4243 11.4476 24.3503 11.4254 24.2314C11.4039 24.1084 11.5297 23.9853 11.7028 23.9533C11.8795 23.9227 12.0376 23.9949 12.0601 24.1168Z" fill="#2B2B2B"/>
</g>
<defs>
<clipPath id="clip0_468_3286">
<rect width="30" height="29.1176" fill="white" transform="translate(0.783203)"/>
</clipPath>
</defs>
</svg>
