<svg width="31" height="31" viewBox="0 0 31 31" fill="none" xmlns="http://www.w3.org/2000/svg">
<g clip-path="url(#clip0_468_3277)">
<path d="M0 2.26867C0 1.05066 1.01896 0.0620117 2.27505 0.0620117H28.5079C29.7645 0.0620117 30.783 1.05066 30.783 2.26867V28.6609C30.783 29.8792 29.7645 30.8671 28.5079 30.8671H2.27505C1.01908 30.8671 0 29.8793 0 28.6612V2.26831V2.26867Z" fill="#2B2B2B"/>
<path d="M9.35446 25.8421V11.9735H4.74808V25.8421H9.35494H9.35446ZM7.05223 10.0803C8.65824 10.0803 9.65808 9.01539 9.65808 7.68451C9.62802 6.32331 8.65824 5.28809 7.08277 5.28809C5.50623 5.28809 4.47656 6.32331 4.47656 7.68439C4.47656 9.01527 5.47605 10.0802 7.02205 10.0802H7.05187L7.05223 10.0803ZM11.9042 25.8421H16.5102V18.0981C16.5102 17.6841 16.5402 17.2691 16.6619 16.9735C16.9948 16.145 17.7527 15.2874 19.0255 15.2874C20.6918 15.2874 21.3589 16.559 21.3589 18.4236V25.8421H25.9648V17.8903C25.9648 13.6306 23.6926 11.6484 20.662 11.6484C18.1774 11.6484 17.0862 13.0381 16.4799 13.9846H16.5105V11.974H11.9044C11.9645 13.275 11.904 25.8426 11.904 25.8426L11.9042 25.8421Z" fill="white"/>
</g>
<defs>
<clipPath id="clip0_468_3277">
<rect width="30.783" height="30.9288" fill="white"/>
</clipPath>
</defs>
</svg>
