<svg width="40" height="40" viewBox="0 0 40 40" fill="none" xmlns="http://www.w3.org/2000/svg">
<path d="M1 29.4044V1H19.7456C21.6265 1 23.7065 1.38127 24.5114 1.5719C38.2879 5.28289 39.6985 17.9875 38.6818 23.876C35.9367 36.0765 27 38.5 22.5 38.9996H1V34.2973H21.5C31.3113 33.3822 34.0219 24.808 34.2973 20.6352C34.3481 9.2989 25.3799 5.99883 20.8894 5.76583H5.70229V24.8292H19.4914C22.8974 24.8292 24.2573 22.2874 24.5114 21.0165C25.2231 16.7463 21.9273 15.4669 20.1904 15.361H15.2339V19.9362H10.4681V10.5952H20.8894C28.5147 11.5611 29.7856 17.9452 29.4679 21.0165C28.4512 28.1335 22.3933 29.5738 19.4914 29.4044H1Z" fill="#2B2B2B" stroke="black" stroke-width="0.127089"/>
</svg>
